<?xml version="1.0" encoding="utf-8"?>
<!-- Generator: Adobe Illustrator 22.0.1, SVG Export Plug-In . SVG Version: 6.00 Build 0)  -->
<svg version="1.1" id="Layer_1" xmlns="http://www.w3.org/2000/svg" xmlns:xlink="http://www.w3.org/1999/xlink" x="0px" y="0px"
	 viewBox="0 0 100 125" style="enable-background:new 0 0 100 125;" xml:space="preserve">
<style type="text/css">
	.st0{fill:#FFFFFF;}
</style>
<path class="st0" d="M33.4,42.7c-1.4,0-2.5,1.1-2.5,2.5v30.1c0,1.4,1.1,2.5,2.5,2.5c1.4,0,2.5-1.1,2.5-2.5V45.2
	C36,43.9,34.8,42.7,33.4,42.7z"/>
<path class="st0" d="M45.5,42.7c-1.4,0-2.5,1.1-2.5,2.5v30.1c0,1.4,1.1,2.5,2.5,2.5s2.5-1.1,2.5-2.5V45.2
	C48,43.9,46.9,42.7,45.5,42.7z"/>
<path class="st0" d="M57.5,42.7c-1.4,0-2.5,1.1-2.5,2.5v30.1c0,1.4,1.1,2.5,2.5,2.5s2.5-1.1,2.5-2.5V45.2
	C60,43.9,58.9,42.7,57.5,42.7z"/>
<path class="st0" d="M80.1,33.4h-6.6V18.9c0-1.4-1.1-2.5-2.5-2.5h-6.5c0-0.1,0-0.1,0-0.2c0-8.1-6.6-14.7-14.7-14.7
	c-5,0-9.6,2.5-12.3,6.6c-5.1,0-9.4,3.5-10.6,8.3h-5.3c-1.4,0-2.5,1.1-2.5,2.5v59.3c0,3.8,1.1,9.6,4.3,13.8h-8
	c-1.4,0-2.5,1.1-2.5,2.5S14,97,15.4,97h18.5h24.6H77c1.4,0,2.5-1.1,2.5-2.5S78.4,92,77,92h-8c3.3-4.2,4.4-10,4.4-13.8v-6.1H80
	c11,0,11-14.1,11-19.4C91.1,47.5,91.1,33.4,80.1,33.4z M37.6,13.2c0.2,0,0.5,0,0.9,0.1c1.1,0.2,2.2-0.4,2.6-1.4
	c1.6-3.3,5-5.4,8.6-5.4c5.3,0,9.6,4.3,9.6,9.6c0,0.1,0,0.1,0,0.2H32.2C33.3,14.5,35.3,13.2,37.6,13.2z M29,21.5h32.6h6.8v7.8H24.1
	v-7.8H29z M33.9,92.1c-9.6,0-9.8-13.3-9.8-13.8V34.4h44.3V36v33.6v8.6c0,0.6-0.3,13.8-9.9,13.8L33.9,92.1L33.9,92.1z M80.1,67.1
	h-6.6V38.5h6.6c4.2,0,6,4.3,6,14.3C86,62.8,84.3,67.1,80.1,67.1z"/>
</svg>
