<?xml version="1.0" encoding="utf-8"?>
<!-- Generator: Adobe Illustrator 22.0.1, SVG Export Plug-In . SVG Version: 6.00 Build 0)  -->
<svg version="1.1" id="Layer_1" xmlns="http://www.w3.org/2000/svg" xmlns:xlink="http://www.w3.org/1999/xlink" x="0px" y="0px"
	 viewBox="0 0 24 30" style="enable-background:new 0 0 24 30;" xml:space="preserve">
<style type="text/css">
	.st0{fill:#FFFFFF;}
</style>
<path class="st0" d="M24,2.5C24,1.1,22.9,0,21.5,0h-19C1.1,0,0,1.1,0,2.5v1c0,0,0,0,0,0c0,0,0,0,0,0l2,12.8l-1.9,2.8c0,0,0,0,0,0
	c0,0,0,0.1,0,0.1c0,0,0,0.1,0,0.1c0,0,0,0,0,0v4C0,23.8,0.2,24,0.5,24h23c0.3,0,0.5-0.2,0.5-0.5v-4c0,0,0,0,0,0c0,0,0-0.1,0-0.1
	c0,0,0-0.1,0-0.1c0,0,0,0,0,0L22,16.4l2-12.8c0,0,0,0,0,0c0,0,0,0,0,0V2.5z M1.2,4.6l2.8,2.1l-1.4,6.9L1.2,4.6z M18.5,15
	c-0.7,0-1.2,0.4-1.4,1h-2.2c-0.2-0.6-0.8-1-1.4-1s-1.2,0.4-1.4,1H7v-1.1c0.6-0.2,1-0.8,1-1.4C8,12.7,7.3,12,6.5,12S5,12.7,5,13.5
	c0,0.7,0.4,1.2,1,1.4V16H3.1l1.8-9h14.2l1.8,9h-1C19.7,15.4,19.2,15,18.5,15z M19,16.5V17h-1v-0.5c0-0.3,0.2-0.5,0.5-0.5
	S19,16.2,19,16.5z M14,16.5V17h-1v-0.5c0-0.3,0.2-0.5,0.5-0.5S14,16.2,14,16.5z M6.5,14C6.2,14,6,13.8,6,13.5S6.2,13,6.5,13
	S7,13.2,7,13.5S6.8,14,6.5,14z M4.7,6L2,4h20l-2.7,2H4.7z M23,23H1v-3h22V23z M22.6,19H1.4l1.3-2H6v0.5C6,17.8,6.2,18,6.5,18
	S7,17.8,7,17.5V17h5v0.5c0,0.3,0.2,0.5,0.5,0.5h2c0.3,0,0.5-0.2,0.5-0.5V17h2v0.5c0,0.3,0.2,0.5,0.5,0.5h2c0.3,0,0.5-0.2,0.5-0.5V17
	h1.2L22.6,19z M21.4,13.6l-1.4-6.9l2.8-2.1L21.4,13.6z M23,3H1V2.5C1,1.7,1.7,1,2.5,1h19C22.3,1,23,1.7,23,2.5V3z M15.5,22h5
	c0.3,0,0.5-0.2,0.5-0.5S20.8,21,20.5,21h-5c-0.3,0-0.5,0.2-0.5,0.5S15.2,22,15.5,22z"/>
</svg>
