<svg id="Layer_2" data-name="Layer 2" xmlns="http://www.w3.org/2000/svg" viewBox="0 0 182.6 75.69"><defs><style>.cls-1{fill:#fff;}</style></defs><title>UA_LOGO</title><path class="cls-1" d="M315.42,307,306,273.76h-.84l9.4,33.21Zm40,41.76h13.37v-.81H356.22v-.81h12.56v-.81H356.22v-.81h12.56v-.81H356.22v-.81h12.56v-.81H356.22v-.81h12.56v-.81H356.22v-5.9h9.42v-.81h-9.42v-.81h9.42v-.81h-9.42v-.81h9.42v-.81h-9.42v-.81h9.42v-.81h-9.42v-.81h9.42v-.81h-9.42v-5.47h12.56V322H356.22v-.81h12.56v-.81H356.22v-.81h12.56v-.81H356.22v-.81h12.56v-.81H356.22v-.81h12.56v-.81H355.41Zm-53.46-33.21-12.89,33.21h.87l12.89-33.21Zm52.7-41.76V307h.81V275.74l.81,1.42V307h.81V278.57l.81,1.42v27h.81V281.41l.81,1.42V307h.81V284.25l.81,1.42V307h.81V287.09L373.25,307h.93l-18.93-33.21Zm-68.83,26.79a10.36,10.36,0,1,0-10.36-10.36A10.37,10.37,0,0,0,285.82,300.54Zm0-19.91a9.55,9.55,0,1,1-9.55,9.55A9.56,9.56,0,0,1,285.82,280.63ZM313.74,307l-9.4-33.21h-.84L312.9,307Zm29-1.77-.47-1.35,8.2-30.09h-.84l-7.83,28.73-.46-1.34,7.46-27.39h-.84l-7.09,26-.46-1.34,6.72-24.68h-.84l-6.35,23.32-.46-1.34,6-22h-.84L339,294.38l-7.14-20.62h-.57L320,305.24l-.38-1.34,10.83-30.15h-.86L319.2,302.54l-.37-1.31,9.87-27.47h-.86l-9.39,26.1-.37-1.31L327,273.76h-.86l-8.43,23.43-.37-1.31,7.94-22.11h-.86l-7.47,20.75-5.86-20.75h-.84L319.62,307h.59l7.86-21.89L335.63,307h.85l-8-23.09.44-1.23,8.4,24.32h.85l-8.83-25.51.44-1.23L339.05,307h.85L330.24,279l.44-1.23L340.77,307h.86L331.11,276.6l.44-1.21L342.48,307h.6l9.05-33.21h-.84Zm-56.91-3a12,12,0,1,0-12-12A12,12,0,0,0,285.82,302.18Zm0-23.18a11.19,11.19,0,1,1-11.19,11.19A11.2,11.2,0,0,1,285.82,279Zm0,28.08a16.89,16.89,0,1,0-16.89-16.89A16.91,16.91,0,0,0,285.82,307.07Zm0-33a16.08,16.08,0,1,1-16.08,16.08A16.1,16.1,0,0,1,285.82,274.1Zm0,31.34a15.26,15.26,0,1,0-15.26-15.26A15.28,15.28,0,0,0,285.82,305.44Zm0-29.71a14.45,14.45,0,1,1-14.45,14.45A14.47,14.47,0,0,1,285.82,275.73Zm68,73h.81V315.51h-.81Zm-68-44.92a13.63,13.63,0,1,0-13.63-13.63A13.64,13.64,0,0,0,285.82,303.81Zm0-26.44A12.82,12.82,0,1,1,273,290.18,12.83,12.83,0,0,1,285.82,277.36Zm66.36,71.36H353V315.51h-.81Zm-46.87-33.21-12.89,33.21h.87l12.89-33.21Zm21.39,33.21h.81V315.51h-.81Zm-39.87-5.58a11.34,11.34,0,0,1-1.71.13,11.19,11.19,0,0,1,0-22.37,11.32,11.32,0,0,1,1.71.13l.4.06.12-.8-.4-.06a12,12,0,1,0,0,23.71l.4-.06-.12-.8ZM246.65,281h6.85V307h.81V281h.81V307h.81V281h.81V307h.81V281h.81V307h.81V281H260V307h.81V281h6.85v-.81h-21Zm40.19,65.4a14.63,14.63,0,0,1-1.77.11,14.45,14.45,0,0,1,0-28.9,14.63,14.63,0,0,1,1.77.11l.4,0,.1-.8-.4,0a15.44,15.44,0,0,0-1.87-.11,15.26,15.26,0,0,0,0,30.52,15.54,15.54,0,0,0,1.87-.11l.4,0-.1-.8Zm0-1.64a13,13,0,0,1-1.74.12,12.82,12.82,0,1,1,0-25.63,13,13,0,0,1,1.74.12l.4.05.11-.8-.4-.05a13.79,13.79,0,0,0-1.85-.12,13.63,13.63,0,1,0,0,27.25,13.78,13.78,0,0,0,1.85-.12l.4-.05-.11-.8Zm38.25,3.93h.81V315.51h-.81ZM318.79,307l-9.4-33.21h-.84l9.4,33.21Zm4.68,41.76h.81V315.51h-.81Zm34.59-75L377,307h.93L359,273.76Zm1.86,0L378.84,307h.93l-18.93-33.21Zm-3.72,0L375.12,307H376l-18.93-33.21ZM307,315.51,294.1,348.72H295l12.89-33.21Zm1.68,0-12.9,33.21h.87l2.32-6h13.24l2.32,6h.87L306,324.56l.4-1,9.78,25.19h.87l-10.2-26.33.4-1,10.62,27.36h.87l-11-28.5.4-1,11.46,29.53h.87l-11.88-30.67.41-1,12.29,31.72h.87l-12.87-33.21Zm3.22,26.44H299.28l.31-.81h12Zm-.63-1.62H299.9l.31-.81H311Zm-.63-1.62H300.53l.31-.81h9.48ZM310,337.1h-8.85l.31-.81h8.22Zm-.63-1.62h-7.59l3.8-9.78ZM317.11,307l-9.4-33.21h-.84l9.4,33.21ZM246.3,348.29h.81V315.51h-.81Zm57.33-32.78-12.89,33.21h.87l12.89-33.21Zm76.9-41.76V305l-.81-1.42V273.76h-.81V302.2l-.81-1.42v-27h-.81v25.6l-.81-1.42V273.76h-.81v22.76l-.81-1.42V273.76h-.81v19.93L362.7,273.76h-.93L380.7,307h.64V273.76Zm-95.39,48.78a9.63,9.63,0,0,1,1.68.15l.4.07.14-.8-.4-.07a10.36,10.36,0,1,0,0,20.41l.4-.07-.14-.8-.4.07a9.55,9.55,0,1,1-1.68-19Zm-31.27,7.37,7.68,19,.75-.3-7.56-18.69Zm-31-35V273.76H222v21.16a11.24,11.24,0,0,1-22.48,0V273.76h-.81v21.16a12,12,0,0,0,24.1,0Zm28.31,53.38H252V315.51h-.81Zm-40.36-43a10.61,10.61,0,0,0,10.6-10.6v-21h-.81v21a9.79,9.79,0,1,1-19.58,0v-21h-.81v21A10.61,10.61,0,0,0,210.79,305.34Zm0-4.82a6,6,0,0,0,6-6V273.76H216v20.75a5.2,5.2,0,0,1-10.4,0V273.76h-.81v20.75A6,6,0,0,0,210.79,300.52Zm0,3.24a9.09,9.09,0,0,0,9.07-9.07V273.76h-.81v20.93a8.27,8.27,0,0,1-16.53,0V273.76h-.81v20.93A9.09,9.09,0,0,0,210.79,303.76Zm0-1.63a7.56,7.56,0,0,0,7.56-7.56V273.76h-.81v20.81a6.75,6.75,0,0,1-13.49,0V273.76h-.81v20.81A7.56,7.56,0,0,0,210.79,302.13Zm13.66,13.39-12.89,33.21h.87l12.89-33.21Zm31.75,14.4h-.6l7.68,19,.75-.3-7.56-18.7Zm-9.54-50.49h21v-.81h-21ZM267,326.28a10.78,10.78,0,0,0-10.77-10.77h-3.51v32.78h.81V333.52l6.24,15.38.75-.3-7-17.23v-8.72h2.62a3.63,3.63,0,0,1,2.67,6.09h0l-.17.17h0l8.05,20,.75-.3-5.36-13.29A10.68,10.68,0,0,0,267,326.28Zm-7.41,2.81a4.44,4.44,0,0,0-3.44-7.25h-2.62V321h2.63a5.32,5.32,0,0,1,3.8,9Zm.7,1.73a6.13,6.13,0,0,0-4.12-10.67h-2.63v-.72h2.68a6.85,6.85,0,0,1,4.37,12.13Zm.61,1.52a7.66,7.66,0,0,0-4.69-13.72h-2.68v-.82h2.6a8.48,8.48,0,0,1,5.06,15.28Zm.61,1.51A9.28,9.28,0,0,0,256.18,317h-2.6v-.67h2.7a10,10,0,0,1,5.55,18.22Zm-14.9-56.05h21V277h-21Zm10.63,51.94L265,348.9l.75-.3L258,329.41A3.6,3.6,0,0,1,257.28,329.74Zm-10.63-55.18h21v-.81h-21Zm0,1.62h21v-.81h-21Zm102.29,72.54h.81V315.51h-.81Zm-20.63,0h.81V315.51h-.81Zm2.43-33.21h-.81v33.21h.81a16.6,16.6,0,0,0,0-33.21Zm0,7.22a9.39,9.39,0,0,1,0,18.78Zm0,19.57a10.18,10.18,0,0,0,0-20.37v-.81a11,11,0,0,1,0,22Zm0,1.61a11.79,11.79,0,0,0,0-23.58v-.81a12.6,12.6,0,0,1,0,25.2Zm0,1.6a13.39,13.39,0,0,0,0-26.79v-.81a14.2,14.2,0,0,1,0,28.41Zm0,2.42v-.81a15,15,0,0,0,0-30v-.81a15.81,15.81,0,0,1,0,31.62Zm-95-74.17h-3.78V307h.81V294.92h3a10.58,10.58,0,0,0,0-21.16Zm-3,7.13h2.81a3.45,3.45,0,0,1,0,6.89h-2.81Zm0,7.7h2.81a4.26,4.26,0,0,0,0-8.51h-2.81v-.81h2.82a5.06,5.06,0,0,1,0,10.12h-2.82Zm0,1.61h2.82a5.87,5.87,0,0,0,0-11.74h-2.82v-.73h2.9a6.6,6.6,0,1,1,0,13.21h-2.9Zm0,1.54h2.9a7.41,7.41,0,1,0,0-14.82h-2.9v-.86h2.86a8.27,8.27,0,1,1,0,16.54h-2.86Zm3,2.36h-3v-.69h2.86a9.08,9.08,0,0,0,0-18.16h-2.86v-.69h3a9.77,9.77,0,0,1,0,19.54Zm12.2,54.19h.81V315.51h-.81Zm102.64.43h.81V315.51h-.81Zm-101-.43h.81V315.51h-.81Zm-23.26-74.54h-.81V307h.81Zm3.22,41.76-12.89,33.21h.87l12.89-33.21Zm-1.68,0-12.89,33.21h.87l12.89-33.21Zm.08-41.76h-.81V307h.81Zm59,74.32a16.39,16.39,0,0,1-1.77.1,16.08,16.08,0,0,1,0-32.16,16.35,16.35,0,0,1,1.77.1l.4,0,.09-.8-.4,0a17.17,17.17,0,0,0-1.86-.1,16.89,16.89,0,0,0,0,33.78,17.13,17.13,0,0,0,1.86-.1l.4,0-.09-.8Zm-60.72-32.56-12.89,33.21h.87L227,315.51Zm3.38-41.76h-.81V307h.81Zm1.66,41.76-12.9,33.21h.87l2.32-6H234.7l2.32,6h.87l-9.36-24.17.4-1,9.78,25.19h.87l-10.2-26.33.4-1,10.62,27.36h.87l-11-28.5.4-1,11.46,29.53h.87L231,318.06l.41-1,12.29,31.72h.87l-12.87-33.21Zm3.22,26.44H221.77l.31-.81h12Zm-.63-1.62H222.4l.31-.81h10.73Zm-.63-1.62H223l.31-.81h9.48Zm-.63-1.62h-8.85l.31-.81h8.22Zm-.63-1.62h-7.59l3.8-9.78Zm-.76-61.72h-.81V307h.81Z" transform="translate(-198.74 -273.29)"/></svg>